<svg width="252" height="34" viewBox="0 0 252 34" fill="none" xmlns="http://www.w3.org/2000/svg">
<g clip-path="url(#clip0)">
<path d="M123.98 28H120.53V7.57H134.57V11.02H123.89V16.06H134.6V19.48H123.98V28ZM140.593 15.85C140.873 15.39 141.243 14.99 141.703 14.65C142.183 14.29 142.703 13.99 143.263 13.75C143.843 13.51 144.453 13.33 145.093 13.21C145.733 13.09 146.373 13.03 147.013 13.03H147.403V16.75H147.013C146.293 16.75 145.553 16.9 144.793 17.2C144.033 17.48 143.333 17.86 142.693 18.34C142.073 18.8 141.563 19.32 141.163 19.9C140.783 20.48 140.593 21.06 140.593 21.64V28H136.873V12.61H140.593V15.85ZM156.036 12.73C156.916 12.73 157.696 12.87 158.376 13.15C159.076 13.41 159.666 13.78 160.146 14.26C160.646 14.74 161.026 15.32 161.286 16C161.546 16.68 161.676 17.45 161.676 18.31V22.42C161.676 23.26 161.546 24.03 161.286 24.73C161.026 25.41 160.646 26 160.146 26.5C159.666 26.98 159.076 27.35 158.376 27.61C157.696 27.87 156.916 28 156.036 28H154.806C153.946 28 153.166 27.87 152.466 27.61C151.766 27.35 151.166 26.98 150.666 26.5C150.186 26 149.816 25.41 149.556 24.73C149.316 24.03 149.196 23.26 149.196 22.42V18.31C149.196 17.45 149.316 16.68 149.556 16C149.816 15.32 150.186 14.74 150.666 14.26C151.166 13.78 151.766 13.41 152.466 13.15C153.166 12.87 153.946 12.73 154.806 12.73H156.036ZM154.806 16.18C154.186 16.18 153.656 16.39 153.216 16.81C152.796 17.21 152.586 17.74 152.586 18.4V22.3C152.586 22.96 152.796 23.5 153.216 23.92C153.656 24.34 154.186 24.55 154.806 24.55H156.036C156.676 24.55 157.196 24.34 157.596 23.92C158.016 23.5 158.226 22.96 158.226 22.3V18.4C158.226 17.74 158.016 17.21 157.596 16.81C157.196 16.39 156.676 16.18 156.036 16.18H154.806ZM170.124 16.15C169.604 16.15 169.174 16.22 168.834 16.36C168.514 16.48 168.264 16.65 168.084 16.87C167.904 17.09 167.774 17.36 167.694 17.68C167.634 17.98 167.604 18.31 167.604 18.67V28H164.094V12.73H167.604V13.12C168.304 12.86 169.054 12.73 169.854 12.73H171.414C172.294 12.73 173.074 12.88 173.754 13.18C174.434 13.48 174.994 13.88 175.434 14.38C175.894 14.86 176.234 15.42 176.454 16.06C176.694 16.68 176.814 17.31 176.814 17.95V28H173.304V18.67C173.304 18.31 173.274 17.98 173.214 17.68C173.154 17.36 173.034 17.09 172.854 16.87C172.694 16.65 172.454 16.48 172.134 16.36C171.814 16.22 171.384 16.15 170.844 16.15H170.124ZM178.31 12.73H181.13V7.57H184.67V12.73H187.49V16.18H184.67V28H181.13V16.18H178.31V12.73ZM200.625 15.46V18.73H189.405V15.46H200.625ZM207.603 24.55H217.773V28H203.733V7.57H217.773V11.02H207.603V16.06H217.773V19.48H207.603V24.55ZM226.843 16.15C226.323 16.15 225.893 16.22 225.553 16.36C225.233 16.48 224.983 16.65 224.803 16.87C224.623 17.09 224.493 17.36 224.413 17.68C224.353 17.98 224.323 18.31 224.323 18.67V28H220.813V12.73H224.323V13.12C225.023 12.86 225.773 12.73 226.573 12.73H228.132C229.013 12.73 229.793 12.88 230.473 13.18C231.153 13.48 231.713 13.88 232.153 14.38C232.613 14.86 232.953 15.42 233.173 16.06C233.413 16.68 233.533 17.31 233.533 17.95V28H230.023V18.67C230.023 18.31 229.993 17.98 229.933 17.68C229.873 17.36 229.753 17.09 229.573 16.87C229.413 16.65 229.173 16.48 228.853 16.36C228.533 16.22 228.103 16.15 227.563 16.15H226.843ZM241.028 28C240.148 28 239.358 27.87 238.658 27.61C237.978 27.35 237.388 26.98 236.888 26.5C236.408 26 236.038 25.41 235.778 24.73C235.518 24.03 235.388 23.26 235.388 22.42V18.31C235.388 17.45 235.518 16.68 235.778 16C236.038 15.32 236.408 14.74 236.888 14.26C237.388 13.78 237.978 13.41 238.658 13.15C239.358 12.87 240.148 12.73 241.028 12.73H242.228C243.068 12.73 243.828 12.85 244.508 13.09V7.57H247.868V28H241.028ZM244.508 24.55V18.4C244.508 17.74 244.288 17.21 243.848 16.81C243.408 16.39 242.868 16.18 242.228 16.18H241.028C240.388 16.18 239.838 16.39 239.378 16.81C238.938 17.21 238.718 17.74 238.718 18.4V22.3C238.718 22.96 238.938 23.5 239.378 23.92C239.838 24.34 240.388 24.55 241.028 24.55H244.508Z" fill="#F3F4F5"/>
<rect width="17.5124" height="3.50249" transform="matrix(0.707462 -0.706752 0.707462 0.706752 76 17.3769)" fill="#AAAAAA"/>
<rect width="17.5124" height="3.50249" transform="matrix(0.707462 0.706752 -0.707462 0.706752 78.4779 14.9264)" fill="#AAAAAA"/>
<rect width="17.5124" height="3.50249" transform="matrix(-0.707462 0.706752 -0.707462 -0.706752 116 17.4018)" fill="#AAAAAA"/>
<rect width="17.5124" height="3.50249" transform="matrix(-0.707462 -0.706752 0.707461 -0.706752 113.522 19.8523)" fill="#AAAAAA"/>
<rect width="17.6991" height="3.53982" transform="matrix(-0.258818 0.965926 -0.965926 -0.25882 100.071 9.24779)" fill="#03A9F4"/>
<path d="M16.38 7.66H23.64L23.64 10.84L17.94 14.26L23.64 17.92L23.64 21.76L14.7 16.18L5.4 21.76L5.4 17.92L16.92 10.84H5.4L5.4 7.66H12.42L12.42 5.17H16.38L16.38 7.66ZM12.78 25.21L12.78 19.33H16.26L16.26 25.21H24.84L24.84 28.69H4.2L4.2 25.21H12.78ZM46.5173 9.13L45.0473 25.21H47.8673L47.8673 28.69H27.2273L27.2273 25.21H33.5273L33.5273 20.89H37.0373L37.0373 25.21H41.4173L42.0473 18.13H28.5473L28.5473 14.86H42.3473L42.8873 9.13H28.5473L28.5473 6.1H46.5173L46.5173 9.13ZM63.1847 28.69H51.9347L51.9347 5.98H55.2947L55.2947 13.42H59.7947L59.7947 5.98H63.1847L63.1847 28.69ZM70.0547 28.87H66.6647L66.6647 5.98H70.0547L70.0547 28.87ZM55.2947 25.42H59.7947L59.7947 17.08H55.2947L55.2947 25.42Z" fill="#F3F4F5"/>
</g>
<defs>
<clipPath id="clip0">
<rect width="252" height="34" fill="white"/>
</clipPath>
</defs>
</svg>
